<svg width="42" height="42" viewBox="0 0 42 42" fill="none" xmlns="http://www.w3.org/2000/svg">
<path d="M18.7778 3.16688H11.6667C7.93298 3.16688 6.06614 3.16688 4.64006 3.87541C3.38565 4.49865 2.36578 5.49313 1.72662 6.7163C1 8.10687 1 9.92722 1 13.5679V24.8357C1 26.8509 1 27.8584 1.22716 28.6851C1.84361 30.9284 3.64059 32.6807 5.94121 33.2818C6.78898 33.5033 7.82229 33.5033 9.88889 33.5033V38.564C9.88889 39.7186 9.88889 40.296 10.1316 40.5925C10.3427 40.8503 10.6628 41.0004 11.0012 41C11.3903 40.9996 11.8526 40.6389 12.7772 39.9177L18.0783 35.7825C19.1611 34.9377 19.7026 34.5153 20.3055 34.215C20.8404 33.9485 21.4098 33.7537 21.9983 33.636C22.6615 33.5033 23.3549 33.5033 24.7417 33.5033H28.1111C31.8448 33.5033 33.7116 33.5033 35.1377 32.7947C36.3921 32.1715 37.412 31.177 38.0512 29.9538C38.7778 28.5633 38.7778 26.7429 38.7778 23.1022V22.6688M39.0474 2.904C41.6509 5.44266 41.6509 9.55864 39.0474 12.0973C36.4439 14.636 32.2228 14.636 29.6193 12.0973C27.0158 9.55864 27.0158 5.44266 29.6193 2.904C32.2228 0.365334 36.4439 0.365334 39.0474 2.904Z" stroke="white" stroke-linecap="round" stroke-linejoin="round"/>
</svg>
