<svg width="162" height="167" viewBox="0 0 162 167" fill="none" xmlns="http://www.w3.org/2000/svg">
<path fill-rule="evenodd" clip-rule="evenodd" d="M92.6837 104.472L50.6239 0.500488L39 6.00049L27.1126 11.5001L82.7063 138.572H89.1474L154 46.0005L135.613 40.5005L92.6837 104.472Z" fill="#283F3B"/>
<path fill-rule="evenodd" clip-rule="evenodd" d="M33.7578 25.0464C38.7571 21.2727 44.3043 18.0304 50.3995 15.3194C51.7384 14.7126 53.0983 14.1426 54.4791 13.6094L60.6237 27.8109C56.2996 30.5896 52.3976 33.9372 48.9176 37.8538C46.6946 40.3556 44.6792 43.0669 42.8712 45.9878L33.7578 25.0464ZM30.0781 28.0045C28.1333 29.6689 26.2814 31.4234 24.5225 33.2681C17.4119 40.6382 11.9773 49.138 8.21868 58.7676C4.46005 68.3972 2.73621 78.4721 3.04716 88.9922C3.35811 99.5123 5.63068 109.427 9.86486 118.736C14.099 128.045 19.8974 136.129 27.2601 142.987C34.7069 149.842 43.5421 155.225 53.7658 159.135C64.0712 162.957 75.4097 164.686 87.7814 164.32C96.3658 164.067 104.076 162.744 110.913 160.352C117.836 158.041 123.981 155.038 129.347 151.341C134.713 147.645 139.431 143.42 143.502 138.667C147.574 133.913 157.292 119.433 160.172 114.293L149.493 107.786C147.513 112.056 138.659 125.838 135.414 130.061C132.254 134.282 128.618 138.096 124.507 141.502C120.48 144.906 116.056 147.691 111.234 149.855C106.413 152.019 101.393 153.178 96.1749 153.332C87.338 153.594 79.0875 152.321 71.4235 149.515C63.8411 146.623 57.188 142.397 51.4642 136.838C45.8246 131.277 41.3259 124.419 37.9682 116.263C34.608 108.023 32.7724 98.6429 32.4614 88.1228C32.1505 77.6027 33.4709 68.1294 36.4228 59.7029C37.4845 56.6392 38.7038 53.7345 40.0806 50.989L30.0781 28.0045ZM64.5816 25.4892L58.7834 12.0885C66.6848 9.5477 75.2306 8.14147 84.4206 7.86983C92.3318 7.636 99.644 8.51492 106.357 10.5066C113.152 12.4116 119.337 15.0506 124.912 18.4237C130.572 21.7943 135.616 25.7306 140.045 30.2326C140.772 30.9575 141.553 31.7247 142.366 32.5225C146.596 36.6765 151.671 41.6598 154.338 45.8207L145.611 56.4756C139.024 44.5405 127.109 31.4573 119.199 26.0473C111.29 20.6374 102.327 18.0805 92.3123 18.3765C83.6437 18.6327 75.5682 20.4297 68.0857 23.7676C66.8914 24.306 65.7233 24.8799 64.5816 25.4892Z" fill="#283F3B"/>
</svg>
