<svg width="42" height="42" viewBox="0 0 42 42" fill="none" xmlns="http://www.w3.org/2000/svg">
<path d="M17 11H9M21 31L9 31M29 21L9 21M31.4 41H10.6C7.23969 41 5.55953 41 4.27606 40.1825C3.14709 39.4635 2.2292 38.3161 1.65396 36.9049C1 35.3006 1 33.2004 1 29V13C1 8.79961 1 6.69941 1.65396 5.09507C2.2292 3.68386 3.14709 2.5365 4.27606 1.81745C5.55953 1 7.23969 1 10.6 1L31.4 1C34.7603 1 36.4405 1 37.7239 1.81745C38.8529 2.5365 39.7708 3.68386 40.346 5.09507C41 6.69941 41 8.79961 41 13V29C41 33.2004 41 35.3006 40.346 36.9049C39.7708 38.3161 38.8529 39.4635 37.7239 40.1825C36.4405 41 34.7603 41 31.4 41Z" stroke="white" stroke-width="2" stroke-linecap="round" stroke-linejoin="round"/>
</svg>
