<svg width="56" height="56" viewBox="0 0 56 56" fill="none" xmlns="http://www.w3.org/2000/svg">
<path d="M51.3337 26.8337V34.067C51.3337 39.2942 51.3337 41.9077 50.3164 43.9042C49.4216 45.6604 47.9938 47.0882 46.2376 47.9831C44.2411 49.0003 41.6275 49.0003 36.4003 49.0003H19.6003C14.3732 49.0003 11.7596 49.0003 9.76308 47.9831C8.0069 47.0882 6.57908 45.6604 5.68426 43.9042C4.66699 41.9077 4.66699 39.2942 4.66699 34.067V21.9337C4.66699 16.7065 4.66699 14.0929 5.68426 12.0964C6.57908 10.3402 8.0069 8.91242 9.76308 8.0176C11.7596 7.00033 14.3732 7.00033 19.6003 7.00033H29.167M44.3337 18.667V4.66699M37.3337 11.667H51.3337M37.3337 28.0003C37.3337 33.155 33.155 37.3337 28.0003 37.3337C22.8457 37.3337 18.667 33.155 18.667 28.0003C18.667 22.8457 22.8457 18.667 28.0003 18.667C33.155 18.667 37.3337 22.8457 37.3337 28.0003Z" stroke="white" stroke-width="4.66667" stroke-linecap="round" stroke-linejoin="round"/>
</svg>
